<svg width="264" height="48" viewBox="0 0 264 48" fill="none" xmlns="http://www.w3.org/2000/svg">
<rect width="264" height="48" rx="24" fill="#0033FF"/>
<path d="M24.5 30.272C20.9 30.272 18.964 27.92 18.964 24.336C18.964 20.752 21.076 18.368 24.532 18.368C27.428 18.368 29.252 19.968 29.556 22.448L26.82 22.928C26.66 21.424 25.828 20.544 24.468 20.544C22.74 20.544 21.732 22 21.732 24.32C21.732 26.576 22.756 28.08 24.548 28.08C25.812 28.08 26.66 27.216 26.884 25.744L29.62 26.336C29.076 28.736 27.316 30.272 24.5 30.272ZM37.6648 30L35.4888 25.648H33.8568V30H31.1528V18.64H36.1448C39.0248 18.64 40.3048 20.048 40.3048 22.128C40.3048 23.552 39.5528 24.752 38.0808 25.248L40.5928 30H37.6648ZM33.8568 20.544V23.792H35.6008C36.9128 23.792 37.4888 23.152 37.4888 22.128C37.4888 21.136 36.9288 20.544 35.6008 20.544H33.8568ZM44.9505 28H50.1345V30H42.2465V18.64H50.0225V20.64H44.9505V23.2H49.7505V25.184H44.9505V28ZM59.9261 30L59.0621 27.344H54.8701L54.0061 30H51.3021L55.4301 18.64H58.5181L62.6461 30H59.9261ZM55.4941 25.44H58.4381L57.3981 22.272C57.2381 21.776 57.0941 21.344 56.9821 20.672H56.9501C56.8381 21.344 56.6941 21.776 56.5341 22.272L55.4941 25.44ZM70.8142 18.64V20.784H67.5023V30H64.8143V20.784H61.5183V18.64H70.8142ZM74.7943 28H79.9783V30H72.0903V18.64H79.8663V20.64H74.7943V23.2H79.5943V25.184H74.7943V28ZM86.9311 30V25.888L83.1551 18.64H86.0031L88.0031 22.832C88.1311 23.12 88.2271 23.408 88.2751 23.664H88.3071C88.3551 23.408 88.4511 23.12 88.5791 22.832L90.5631 18.64H93.4271L89.6511 25.888V30H86.9311ZM98.7046 30.272C95.2966 30.272 93.1046 27.968 93.1046 24.32C93.1046 20.656 95.2966 18.368 98.7046 18.368C102.113 18.368 104.305 20.656 104.305 24.32C104.305 27.984 102.113 30.272 98.7046 30.272ZM98.7046 28.16C100.481 28.16 101.521 26.72 101.521 24.32C101.521 21.92 100.481 20.48 98.7046 20.48C96.9286 20.48 95.8726 21.92 95.8726 24.32C95.8726 26.704 96.9286 28.16 98.7046 28.16ZM105.758 18.64H108.462V25.92C108.462 27.248 109.246 28.08 110.574 28.08C111.918 28.08 112.686 27.248 112.686 25.92V18.64H115.39V26.032C115.39 28.624 113.598 30.272 110.574 30.272C107.55 30.272 105.758 28.624 105.758 26.032V18.64ZM124.071 30L121.895 25.648H120.263V30H117.559V18.64H122.551C125.431 18.64 126.711 20.048 126.711 22.128C126.711 23.552 125.959 24.752 124.487 25.248L126.999 30H124.071ZM120.263 20.544V23.792H122.007C123.319 23.792 123.895 23.152 123.895 22.128C123.895 21.136 123.335 20.544 122.007 20.544H120.263ZM140.382 20.688H135.31V23.312H140.094V25.328H135.31V30H132.606V18.64H140.382V20.688ZM146.814 30.272C143.406 30.272 141.214 27.968 141.214 24.32C141.214 20.656 143.406 18.368 146.814 18.368C150.222 18.368 152.414 20.656 152.414 24.32C152.414 27.984 150.222 30.272 146.814 30.272ZM146.814 28.16C148.59 28.16 149.63 26.72 149.63 24.32C149.63 21.92 148.59 20.48 146.814 20.48C145.038 20.48 143.982 21.92 143.982 24.32C143.982 26.704 145.038 28.16 146.814 28.16ZM160.571 30L158.395 25.648H156.763V30H154.059V18.64H159.051C161.931 18.64 163.211 20.048 163.211 22.128C163.211 23.552 162.459 24.752 160.987 25.248L163.499 30H160.571ZM156.763 20.544V23.792H158.507C159.819 23.792 160.395 23.152 160.395 22.128C160.395 21.136 159.835 20.544 158.507 20.544H156.763ZM165.153 30V18.64H168.865L170.961 25.6C171.121 26.144 171.185 26.576 171.233 26.976H171.265C171.313 26.576 171.393 26.128 171.553 25.568L173.553 18.64H177.313V30H174.849V22.256C174.849 21.824 174.865 21.408 174.913 20.976H174.865C174.833 21.296 174.721 21.776 174.625 22.08L172.337 30H170.065L167.681 22.08C167.569 21.776 167.473 21.296 167.441 20.992H167.393C167.425 21.376 167.457 21.808 167.457 22.256V30H165.153ZM179.492 18.64H182.196V25.92C182.196 27.248 182.98 28.08 184.308 28.08C185.652 28.08 186.42 27.248 186.42 25.92V18.64H189.124V26.032C189.124 28.624 187.332 30.272 184.308 30.272C181.284 30.272 179.492 28.624 179.492 26.032V18.64ZM191.293 30V18.64H193.997V27.808H198.605V30H191.293ZM208.067 30L207.203 27.344H203.011L202.147 30H199.443L203.571 18.64H206.659L210.787 30H208.067ZM203.635 25.44H206.579L205.539 22.272C205.379 21.776 205.235 21.344 205.123 20.672H205.091C204.979 21.344 204.835 21.776 204.675 22.272L203.635 25.44Z" fill="white"/>
<path d="M219.5 24L240.5 24M240.5 24L232.625 32M240.5 24L232.625 16" stroke="white" stroke-width="2" stroke-linecap="round" stroke-linejoin="round"/>
</svg>
