<svg width="48" height="46" viewBox="0 0 48 46" fill="none" xmlns="http://www.w3.org/2000/svg">
<path d="M8.55747 38.3816C8.3426 38.1667 7.99423 38.1667 7.77937 38.3816C7.5645 38.5965 7.5645 38.9448 7.77937 39.1597L8.16842 38.7707L8.55747 38.3816ZM39.4422 7.49692C39.657 7.71179 40.0054 7.71179 40.2203 7.49692C40.4351 7.28205 40.4351 6.93369 40.2203 6.71882L39.8312 7.10787L39.4422 7.49692ZM46.0516 16.6057C45.9679 16.3136 45.6633 16.1445 45.3712 16.2282C45.0791 16.3118 44.91 16.6164 44.9936 16.9085L45.5226 16.7571L46.0516 16.6057ZM1.94806 29.2728C2.03169 29.565 2.3363 29.734 2.62843 29.6504C2.92057 29.5667 3.0896 29.2621 3.00597 28.97L2.47702 29.1214L1.94806 29.2728ZM40.7007 0.89399C40.7007 0.590123 40.4544 0.34379 40.1505 0.34379C39.8467 0.34379 39.6003 0.590123 39.6003 0.89399H40.1505H40.7007ZM40.1505 7.58413V8.13433C40.2965 8.13433 40.4364 8.07636 40.5396 7.97318C40.6428 7.87 40.7007 7.73005 40.7007 7.58413H40.1505ZM33.4604 7.03393C33.1565 7.03393 32.9102 7.28026 32.9102 7.58413C32.9102 7.888 33.1565 8.13433 33.4604 8.13433V7.58413V7.03393ZM7.04798 44.7116C7.04798 45.0155 7.29432 45.2618 7.59818 45.2618C7.90205 45.2618 8.14838 45.0155 8.14838 44.7116H7.59818H7.04798ZM7.59818 38.0215V37.4713C7.29432 37.4713 7.04799 37.7176 7.04799 38.0215H7.59818ZM14.2883 38.5717C14.5922 38.5717 14.8385 38.3254 14.8385 38.0215C14.8385 37.7176 14.5922 37.4713 14.2883 37.4713V38.0215V38.5717ZM26.197 10.8128L26.7451 10.8611C26.7671 10.6113 26.6174 10.3782 26.381 10.2943C26.1447 10.2104 25.8815 10.2969 25.7411 10.5047L26.197 10.8128ZM16.539 25.1057L16.0831 24.7977C15.9692 24.9663 15.9576 25.1841 16.0531 25.3638C16.1486 25.5436 16.3355 25.6559 16.539 25.6559V25.1057ZM22.685 25.1057L23.2331 25.154C23.2466 25.0003 23.195 24.848 23.0907 24.7342C22.9865 24.6203 22.8393 24.5555 22.685 24.5555V25.1057ZM21.807 35.0675L21.2589 35.0192C21.2369 35.269 21.3866 35.5021 21.6229 35.586C21.8593 35.6699 22.1224 35.5833 22.2629 35.3755L21.807 35.0675ZM31.465 20.7745L31.9208 21.0826C32.0348 20.9139 32.0463 20.6962 31.9509 20.5164C31.8554 20.3367 31.6685 20.2243 31.465 20.2243V20.7745ZM25.319 20.7745L24.7709 20.7262C24.7574 20.88 24.809 21.0323 24.9132 21.1461C25.0174 21.2599 25.1647 21.3247 25.319 21.3247V20.7745ZM39.8312 38.7707L39.4422 38.3816C30.9136 46.9102 17.086 46.9102 8.55747 38.3816L8.16842 38.7707L7.77937 39.1597C16.7377 48.118 31.2619 48.118 40.2203 39.1597L39.8312 38.7707ZM8.16842 7.10787L8.55747 7.49692C17.086 -1.03165 30.9136 -1.03165 39.4422 7.49692L39.8312 7.10787L40.2203 6.71882C31.2619 -2.23948 16.7377 -2.23948 7.77937 6.71882L8.16842 7.10787ZM45.5226 16.7571L44.9936 16.9085C47.1072 24.2918 45.2557 32.568 39.4422 38.3816L39.8312 38.7707L40.2203 39.1597C46.3278 33.0521 48.2707 24.3578 46.0516 16.6057L45.5226 16.7571ZM2.47702 29.1214L3.00597 28.97C0.892454 21.5867 2.74389 13.3105 8.55747 7.49692L8.16842 7.10787L7.77937 6.71882C1.6718 12.8264 -0.271031 21.5207 1.94806 29.2728L2.47702 29.1214ZM40.1505 0.89399H39.6003V7.58413H40.1505H40.7007V0.89399H40.1505ZM40.1505 7.58413V7.03393L33.4604 7.03393V7.58413V8.13433L40.1505 8.13433V7.58413ZM7.59818 44.7116H8.14838L8.14838 38.0215H7.59818H7.04799L7.04798 44.7116H7.59818ZM7.59818 38.0215V38.5717H14.2883V38.0215V37.4713H7.59818V38.0215ZM26.197 10.8128L25.7411 10.5047L16.0831 24.7977L16.539 25.1057L16.9949 25.4138L26.6529 11.1208L26.197 10.8128ZM16.539 25.1057V25.6559H22.685V25.1057V24.5555H16.539V25.1057ZM22.685 25.1057L22.1369 25.0574L21.2589 35.0192L21.807 35.0675L22.3551 35.1158L23.2331 25.154L22.685 25.1057ZM21.807 35.0675L22.2629 35.3755L31.9208 21.0826L31.465 20.7745L31.0091 20.4665L21.3511 34.7594L21.807 35.0675ZM31.465 20.7745V20.2243H25.319V20.7745V21.3247H31.465V20.7745ZM25.319 20.7745L25.8671 20.8228L26.7451 10.8611L26.197 10.8128L25.6489 10.7645L24.7709 20.7262L25.319 20.7745Z" fill="white"/>
</svg>
