<?xml version="1.0" encoding="utf-8"?>
<!-- Generator: Adobe Illustrator 23.0.2, SVG Export Plug-In . SVG Version: 6.00 Build 0)  -->
<svg version="1.1" id="Layer_1" xmlns="http://www.w3.org/2000/svg" xmlns:xlink="http://www.w3.org/1999/xlink" x="0px" y="0px"
	 viewBox="0 0 21.34 20.85" style="enable-background:new 0 0 21.34 20.85;" xml:space="preserve">
<style type="text/css">
	.st0{clip-path:url(#SVGID_2_);}
</style>
<g>
	<defs>
		<path id="SVGID_1_" d="M1.97,7.13l8.27,5.91c0.22,0.16,0.56,0.16,0.78,0l8.27-5.91v8.49H1.95V7.13H1.97z M1.97,4.95H19.3v0.53
			l-8.67,6.18L1.97,5.48V4.95z M1.24,3.62c-0.33,0.04-0.6,0.33-0.6,0.67v12c0,0.36,0.31,0.67,0.67,0.67h18.67
			c0.36,0,0.67-0.31,0.67-0.67v-12c0-0.36-0.31-0.67-0.67-0.67H1.3C1.28,3.62,1.26,3.62,1.24,3.62z"/>
	</defs>
	<clipPath id="SVGID_2_">
		<use xlink:href="#SVGID_1_"  style="overflow:visible;"/>
	</clipPath>
	<rect x="-4.36" y="-1.38" class="st0" width="30" height="23.33"/>
</g>
</svg>
