<?xml version="1.0" encoding="utf-8"?>
<!-- Generator: Adobe Illustrator 23.0.2, SVG Export Plug-In . SVG Version: 6.00 Build 0)  -->
<svg version="1.1" id="Layer_1" xmlns="http://www.w3.org/2000/svg" xmlns:xlink="http://www.w3.org/1999/xlink" x="0px" y="0px"
	 viewBox="0 0 21.34 20.85" style="enable-background:new 0 0 21.34 20.85;" xml:space="preserve">
<style type="text/css">
	.st0{clip-path:url(#SVGID_2_);}
</style>
<g>
	<defs>
		<path id="SVGID_1_" d="M10.89,2C6.31,2,4,5.33,4,8.1c0,1.68,0.63,3.17,1.97,3.73c0.22,0.09,0.42,0,0.48-0.24
			c0.04-0.17,0.15-0.6,0.2-0.78c0.06-0.24,0.04-0.33-0.14-0.54C6.13,9.79,5.88,9.19,5.88,8.34c0-2.47,1.82-4.68,4.75-4.68
			c2.59,0,4.01,1.6,4.01,3.74c0,2.82-1.23,5.19-3.06,5.19c-1.01,0-1.76-0.85-1.52-1.88c0.29-1.24,0.85-2.57,0.85-3.46
			c0-0.8-0.42-1.47-1.3-1.47c-1.03,0-1.86,1.08-1.86,2.53c0,0.92,0.31,1.54,0.31,1.54S7,14.39,6.82,15.18
			c-0.37,1.58-0.05,3.51-0.03,3.71c0.01,0.12,0.16,0.14,0.23,0.06c0.09-0.13,1.32-1.66,1.74-3.19c0.12-0.43,0.68-2.68,0.68-2.68
			c0.33,0.65,1.31,1.22,2.36,1.22c3.1,0,5.2-2.86,5.2-6.69C17,4.7,14.57,2,10.89,2z"/>
	</defs>
	<clipPath id="SVGID_2_">
		<use xlink:href="#SVGID_1_"  style="overflow:visible;"/>
	</clipPath>
	<rect x="-1" y="-3" class="st0" width="23" height="27"/>
</g>
</svg>
