<svg width="69" height="36" viewBox="0 0 69 36" fill="none" xmlns="http://www.w3.org/2000/svg">
<path d="M0.938 22V12.2H4.956C6.944 12.2 8.26 13.292 8.26 14.902C8.26 16.302 7.28 17.254 5.866 17.394C7.154 17.478 7.826 18.178 7.938 19.424L8.106 21.034C8.134 21.468 8.204 21.748 8.302 22H6.902C6.832 21.79 6.762 21.496 6.72 21.146L6.566 19.536C6.468 18.528 5.922 18.024 4.76 18.024H2.31V22H0.938ZM4.886 16.932C6.048 16.932 6.86 16.246 6.86 15.14C6.86 14.048 6.048 13.306 4.886 13.306H2.31V16.932H4.886ZM13.0294 22.238C10.9854 22.238 9.51541 20.67 9.51541 18.5C9.51541 16.344 10.9854 14.762 13.0154 14.762C15.4234 14.762 16.5994 16.932 16.3474 18.878H10.8594C10.9014 20.236 11.7974 21.202 13.0434 21.202C14.0094 21.202 14.8214 20.642 15.0874 19.802L16.2214 19.984C15.9134 21.272 14.6534 22.238 13.0294 22.238ZM10.8734 17.884H15.0594C15.0594 16.694 14.2334 15.77 13.0154 15.77C11.8534 15.77 10.9854 16.638 10.8734 17.884ZM19.7388 22.154C18.4228 22.154 17.4708 21.426 17.4708 20.208C17.4708 18.906 18.5908 18.206 20.7048 17.968L22.1328 17.814V17.534C22.1328 16.512 21.5588 15.868 20.5788 15.868C19.6828 15.868 19.0528 16.442 18.9688 17.408L17.6808 17.366C17.7928 15.84 18.9688 14.804 20.6208 14.804C22.3008 14.804 23.4348 15.896 23.4348 17.576V19.998C23.4348 20.754 23.5188 21.51 23.6168 22H22.3288C22.2448 21.678 22.1888 21.286 22.1888 20.558C21.8668 21.524 20.9148 22.154 19.7388 22.154ZM20.1448 21.23C21.2648 21.23 22.1468 20.376 22.1468 19.144V18.612L20.8028 18.78C19.5008 18.934 18.8008 19.284 18.8008 20.096C18.8008 20.866 19.3888 21.23 20.1448 21.23ZM28.0209 22.182C26.1449 22.182 24.7869 20.656 24.7869 18.5C24.7869 16.358 26.1449 14.832 28.0209 14.832C29.1129 14.832 29.9809 15.336 30.4989 16.204V12.2H31.8289V20.502V22H30.4989V20.796C29.9809 21.678 29.1129 22.182 28.0209 22.182ZM28.3569 21.09C29.6589 21.09 30.5689 20.04 30.5689 18.5C30.5689 16.974 29.6589 15.924 28.3569 15.924C27.0689 15.924 26.1309 17.002 26.1309 18.5C26.1309 19.998 27.0689 21.09 28.3569 21.09ZM36.2772 22V15.014H37.6072L37.5652 16.75C37.8452 15.546 38.6432 14.832 39.8892 14.832C41.0792 14.832 41.9332 15.518 42.2412 16.666C42.5352 15.504 43.3612 14.832 44.5932 14.832C46.0912 14.832 47.0432 15.91 47.0432 17.632V22H45.7132V17.898C45.7132 16.624 45.1532 15.91 44.1452 15.91C43.0112 15.91 42.3672 16.792 42.3672 18.388V22H41.0512V17.898C41.0512 16.624 40.4632 15.91 39.4272 15.91C38.2512 15.91 37.6072 16.792 37.6072 18.388V22H36.2772ZM51.9405 22.21C49.8685 22.21 48.3845 20.67 48.3845 18.5C48.3845 16.33 49.8685 14.804 51.9405 14.804C54.0125 14.804 55.4825 16.33 55.4825 18.5C55.4825 20.67 54.0125 22.21 51.9405 22.21ZM51.9405 21.09C53.2425 21.09 54.1385 20.026 54.1385 18.5C54.1385 16.988 53.2425 15.924 51.9405 15.924C50.6245 15.924 49.7285 16.988 49.7285 18.5C49.7285 20.026 50.6245 21.09 51.9405 21.09ZM56.8807 22V15.014H58.2107L58.1687 17.1C58.4627 15.378 59.6667 14.762 60.8707 14.986V16.288C59.4007 16.092 58.2107 16.96 58.2107 18.99V22H56.8807ZM65.0235 22.238C62.9795 22.238 61.5095 20.67 61.5095 18.5C61.5095 16.344 62.9795 14.762 65.0095 14.762C67.4175 14.762 68.5935 16.932 68.3415 18.878H62.8535C62.8955 20.236 63.7915 21.202 65.0375 21.202C66.0035 21.202 66.8155 20.642 67.0815 19.802L68.2155 19.984C67.9075 21.272 66.6475 22.238 65.0235 22.238ZM62.8675 17.884H67.0535C67.0535 16.694 66.2275 15.77 65.0095 15.77C63.8475 15.77 62.9795 16.638 62.8675 17.884Z" fill="#414141"/>
<line y1="27.5" x2="69" y2="27.5" stroke="#A0A0A0"/>
</svg>
